<svg version="1.0" xmlns="http://www.w3.org/2000/svg"
 width="1920.000000pt" height="1080.000000pt" viewBox="770 250 250 270"
 preserveAspectRatio="xMidYMid meet" xmlns:c2pa="http://c2pa.org/manifest"><g transform="translate(0.000000,1080.000000) scale(0.100000,-0.100000)"
fill="#ffffff" stroke="none">
<path d="M9075 7010 c-308 -23 -608 -160 -842 -383 -210 -202 -347 -448 -410
-739 -26 -118 -25 -428 0 -548 71 -332 260 -635 523 -836 85 -65 63 -15 180
-424 36 -129 73 -248 81 -263 23 -46 70 -69 127 -63 41 5 117 46 505 275 251
148 499 290 551 316 425 212 691 555 787 1015 25 119 25 392 0 510 -28 128
-74 265 -124 365 -223 447 -649 734 -1148 775 -66 5 -122 9 -125 8 -3 0 -50
-4 -105 -8z m305 -431 c313 -57 599 -286 720 -576 61 -146 73 -212 73 -388 0
-132 -3 -174 -21 -237 -49 -180 -135 -332 -257 -453 -210 -211 -499 -314 -800
-285 -403 38 -742 331 -851 737 -26 95 -27 379 -2 471 98 352 345 609 685 712
122 37 309 45 453 19z"/>
<path d="M9640 6139 c-27 -7 -98 -74 -306 -284 -149 -151 -274 -275 -278 -275
-4 0 -53 41 -108 91 -56 49 -114 97 -130 105 -42 22 -119 28 -162 14 -54 -18
-150 -101 -175 -153 -50 -103 -32 -128 279 -402 263 -232 283 -245 347 -231
35 8 184 143 205 186 8 17 145 164 304 328 300 308 314 326 314 406 0 91 -114
207 -215 220 -22 3 -56 1 -75 -5z"/>
</g>
</svg>
